<svg viewBox="0 0 14 14" xmlns="http://www.w3.org/2000/svg"><path d="m9.2922676 9.3300806 1.1417124 1.0329594s-1.3523278 1.137707-2.7364009 1.175065c.030025 0 .00734-5.2483964.00245-6.525848.921044-.3006838 1.5922388-1.1777253 1.5922388-2.1765571 0-1.2541968-1.0477912-2.23215557-2.3375286-2.23215557-1.292182 0-2.3928059.97858567-2.3928059 2.23215557 0 .9822839.7056094 1.8507379 1.6064699 2.1661519l.00615 6.5362532c-1.6700394-.115146-2.6434883-1.233393-2.6434883-1.233393l.9919828-.9746314-3.91593287-1.5291272.61973337 4.8390936 1.0882785-1.000023c.942481.758761 2.0785032 2.086976 4.6396122 2.086976 3.217574-.08206 3.888852-1.566406 4.713741-2.247441l1.190513 1.160488.588518-4.8390936zm-3.5421443-6.4943807c0-.6454954.5395635-1.169702 1.2046157-1.169702.6650521 0 1.2070603.5242066 1.2070603 1.169702 0 .6473133-.5420082 1.1709556-1.2070603 1.1709556-.6650522 0-1.2046157-.5236423-1.2046157-1.1709556z" stroke-width=".5"/></svg>