<svg id="a" version="1.1" viewBox="0 0 14 14" xmlns="http://www.w3.org/2000/svg"><path id="b" d="m9.2923 9.3301 1.1417 1.033s-1.3523 1.1377-2.7364 1.1751c0.030025 0 0.00734-5.2484 0.00245-6.5258 0.92104-0.30068 1.5922-1.1777 1.5922-2.1766 0-1.2542-1.0478-2.2322-2.3375-2.2322-1.2922 0-2.3928 0.97859-2.3928 2.2322 0 0.98228 0.70561 1.8507 1.6065 2.1662l0.00615 6.5363c-1.67-0.11515-2.6435-1.2334-2.6435-1.2334l0.99198-0.97463-3.9159-1.5291 0.61973 4.8391 1.0883-1c0.94248 0.75876 2.0785 2.087 4.6396 2.087 3.2176-0.08206 3.8889-1.5664 4.7137-2.2474l1.1905 1.1605 0.58852-4.8391zm-3.5421-6.4944c0-0.6455 0.53956-1.1697 1.2046-1.1697 0.66505 0 1.2071 0.52421 1.2071 1.1697 0 0.64731-0.54201 1.171-1.2071 1.171-0.66505 0-1.2046-0.52364-1.2046-1.171z" fill="#000000" stroke-width=".5"/></svg>
