<svg viewBox="0 0 14 14" xmlns="http://www.w3.org/2000/svg"><path d="m1.3273 6.8379a2.0021 2.0021 0 0 0-0.5013 2.7874 2.0021 2.0021 0 0 0 1.2309 0.81085 2.0021 2.0021 0 0 0 0.33117 1.4363 2.0021 2.0021 0 0 0 2.7874 0.5013 2.0021 2.0021 0 0 0 0.61105-2.6106l4.2328-2.9424a2.0021 2.0021 0 0 0 2.6533 0.34144 2.0021 2.0021 0 0 0 0.5013-2.7874 2.0021 2.0021 0 0 0-1.2265-0.81393 2.0021 2.0021 0 0 0-0.3356-1.4332 2.0021 2.0021 0 0 0-2.7874-0.5013 2.0021 2.0021 0 0 0-0.60441 2.606l-4.2328 2.9424a2.0021 2.0021 0 0 0-2.6599-0.33682z" fill="#fff" stroke="#000" stroke-linecap="round" stroke-linejoin="round" stroke-width=".5"/></svg>
