<svg id="a" version="1.1" viewBox="0 0 14 14" xmlns="http://www.w3.org/2000/svg"><path id="b" transform="translate(-.059936 -.11987)" d="m9.0591 5.7301c-0.42228-1.3031-1.3149-0.87752-1.8227-0.32296v-3.1202c-5.076e-4 -1.9327-2.9003-1.9327-2.8998 0l0.059936 5.568c-0.71464-0.30721-1.256-1.0287-1.9931-1.2183-1.2963-0.0032-1.945 1.5665-1.0246 2.4793l3.8664 3.5281c0.54738 0.48993 1.2566 0.76018 1.9912 0.75878h2.4165c1.8684 0 3.3831-1.3813 3.3831-3.2498v-2.5498c0-1.3616-0.83082-2.1141-1.7566-1.2639-0.4728-1.4479-1.6148-1.4756-2.2203-0.60919z" fill="#ffffff" stroke="#000000" stroke-width=".5"/></svg>
