<svg viewBox="0 0 14 14" xmlns="http://www.w3.org/2000/svg"><path d="m67.853322 388.17497c.0707-22.02036 17.59576-39.58948 39.660318-39.66032 22.03641.0943 39.56572 17.5661 39.66031 39.66032-.0948 22.12244-17.65296 39.566-39.66031 39.66031-22.116357-.09468-39.589641-17.67124-39.660318-39.66031zm357.102758-370.376173-1.43929-1.439285-166.17722 168.616238-168.856487-168.696199-1.519246 1.519246c-30.01797 30.02797-30.02797 78.716056 0 108.746023l113.223803 113.14385-49.9752 49.89523c-71.065604-30.7595-150.36865573 21.84536-150.24542346 98.59107-.10078598 62.73926 50.34273946 107.61763 107.54662346 107.54662 79.6561.0988 128.06173-82.15204 98.59106-150.24543l49.89524-49.89524 49.89523 49.89524c-31.02841 71.75063 22.40744 150.33992 98.59107 150.24543 59.16974.0734 107.62008-48.36937 107.54662-107.54662.0985-79.43874-81.8873-128.27129-150.32539-98.59107l-50.69923-49.69909 113.94784-113.33999c30.02897-30.028967 30.01797-78.718053 0-108.746023m-60.13015 370.376173c.0945-22.07924 17.5941-39.56585 39.66031-39.66032 22.03826.0731 39.56574 17.59176 39.66032 39.66032-.0971 22.15102-17.68657 39.58754-39.66032 39.66031-22.05115-.0731-39.5656-17.60718-39.66031-39.66031z" stroke="#fff" stroke-width="27.29312" transform="matrix(0 .02442618 -.02442618 0 13.253116 .746899)"/></svg>