<svg id="a" version="1.1" viewBox="0 0 14 14" xmlns="http://www.w3.org/2000/svg"><path id="b" transform="matrix(0 .024426 -.024426 0 13.253 .7469)" d="m67.853 388.17c0.0707-22.02 17.596-39.589 39.66-39.66 22.036 0.0943 39.566 17.566 39.66 39.66-0.0948 22.122-17.653 39.566-39.66 39.66-22.116-0.09468-39.59-17.671-39.66-39.66zm357.1-370.38-1.4393-1.4393-166.18 168.62-168.86-168.7-1.5192 1.5192c-30.018 30.028-30.028 78.716 0 108.75l113.22 113.14-49.975 49.895c-71.066-30.76-150.37 21.845-150.25 98.591-0.10079 62.739 50.343 107.62 107.55 107.55 79.656 0.0988 128.06-82.152 98.591-150.25l49.895-49.895 49.895 49.895c-31.028 71.751 22.407 150.34 98.591 150.25 59.17 0.0734 107.62-48.369 107.55-107.55 0.0985-79.439-81.887-128.27-150.33-98.591l-50.699-49.699 113.95-113.34c30.029-30.029 30.018-78.718 0-108.75m-60.13 370.38c0.0945-22.079 17.594-39.566 39.66-39.66 22.038 0.0731 39.566 17.592 39.66 39.66-0.0971 22.151-17.687 39.588-39.66 39.66-22.051-0.0731-39.566-17.607-39.66-39.66z" fill="#000000" stroke="#fff" stroke-width="27.293"/></svg>
