<svg id="a" version="1.1" viewBox="0 0 14 14" xmlns="http://www.w3.org/2000/svg"><path id="b" class="linesandangles_een" d="m9.4894 5.0931v-3.072c0-0.60045-0.39781-1.4937-1.4937-1.4937-1.0958 0-1.4937 0.89321-1.4937 1.4937v1.0062l-2.4625 2.479h-2.0184c-0.55016 0-0.99577 0.44561-0.99577 0.99577v4.481h0.99577v-3.4852l5.9746 5.9746 4.9789-4.9789zm-1.4937-3.5698c0.4013 0 0.49191 0.27384 0.49789 0.49789v2.0762l-0.99577-0.99577v-1.0744c0.00597-0.23002 0.09659-0.50386 0.49789-0.50386zm0 10.456-4.481-4.481 2.9873-2.9873v2.9873h0.99577v-2.9878l3.9831 3.9836zm-6.9704 0h0.99577v0.99577h-0.99577z" fill="#000000" stroke-width=".49789"/></svg>
