<svg viewBox="0 0 14 14" xmlns="http://www.w3.org/2000/svg"><path d="m9.3115005 7.2754501c-.6871344.1799963-1.2230997-.0327265-1.8415198-.2781762-.6733918-.2618127-1.4292394-.5727153-2.3774842-.3109025-.9345022.2454495-1.6353793.8999814-2.1163729 1.5217867-.30381-1.467616-.6540061-2.9262901-.9866769-4.387807.233625-.4254457.9198288-1.238483 2.0055-1.4839325.824562-.1799961 1.6060333.0627687 2.4168513.7827539.783333.6872584 1.730647 1.1503172 2.8163193 1.1012273.9207607-.0490897 2.1504077-1.1778225 2.8925117-1.8978077.413628 1.2839846-1.244154 4.952858-2.8091243 4.952858z" fill="#1a1a1a" stroke-width=".149957"/><path d="m12.248242 1.4839528c-.246925-.0519841-.493849.0779762-.584822.3119049-.142956.3249009-1.520536 1.7544646-2.7031748 1.8064488-.675794.025992-1.299603-.4418652-1.962401-.9357145-.857738-.6238097-1.8064489-1.3255955-3.0280761-1.091667-1.8064488.337897-2.651191 1.9624013-2.6901792 2.0403775-.051984.1039682-.06498.2339287-.038988.350893l.5198414 2.3262901 1.5205361 6.7449414c.051984.246925.2729167.402877.5068453.402877.038988 0 .077976 0 .1169643-.013.2859128-.06498.4548612-.337897.389881-.623809l-.8837304-3.9377945c.2339287-.363889.8967264-1.2606154 1.9364091-1.494544.6238095-.1429564 1.1176595.025992 1.6894845.2079365.636806.2079366 1.364584.4548612 2.300298.2469247 1.9624008-.4548612 3.2879968-2.7941474 3.3269848-5.8352195 0-.2469247-.168948-.4548612-.415873-.5068454zm-3.1450398 5.3283742c-.649802.1429564-1.156648-.0259921-1.741469-.2209326-.636806-.2079365-1.351588-.4548612-2.2483141-.2469246-.8837303.1949405-1.5465281.7147819-2.0013893 1.2086312l-.0519842-.2339287-.766766-3.3789689c.2209326-.3378969.8317462-1.1436511 1.8584329-1.3385916.7797621-.1429563 1.4425599.3378969 2.2093257.9097225.740774.5458334 1.598512 1.169643 2.625199 1.1306549.870735-.038988 1.7674608-.5458334 2.4692468-1.1176589-.298909 1.5595241-1.065675 2.9890879-2.3522818 3.2879967z" stroke-width=".12996"/></svg>