<svg id="a" version="1.1" viewBox="0 0 14 14" xmlns="http://www.w3.org/2000/svg"><path id="b" d="m9.3115 7.2755c-0.68713 0.18-1.2231-0.032726-1.8415-0.27818-0.67339-0.26181-1.4292-0.57272-2.3775-0.3109-0.9345 0.24545-1.6354 0.89998-2.1164 1.5218-0.30381-1.4676-0.65401-2.9263-0.98668-4.3878 0.23362-0.42545 0.91983-1.2385 2.0055-1.4839 0.82456-0.18 1.606 0.062769 2.4169 0.78275 0.78333 0.68726 1.7306 1.1503 2.8163 1.1012 0.92076-0.04909 2.1504-1.1778 2.8925-1.8978 0.41363 1.284-1.2442 4.9529-2.8091 4.9529z" fill="#1a1a1a" stroke-width=".14996"/><path id="c" d="m12.248 1.484c-0.24692-0.051984-0.49385 0.077976-0.58482 0.3119-0.14296 0.3249-1.5205 1.7545-2.7032 1.8064-0.67579 0.025992-1.2996-0.44187-1.9624-0.93571-0.85774-0.62381-1.8064-1.3256-3.0281-1.0917-1.8064 0.3379-2.6512 1.9624-2.6902 2.0404-0.051984 0.10397-0.06498 0.23393-0.038988 0.35089l0.51984 2.3263 1.5205 6.7449c0.051984 0.24692 0.27292 0.40288 0.50685 0.40288 0.038988 0 0.077976 0 0.11696-0.013 0.28591-0.06498 0.45486-0.3379 0.38988-0.62381l-0.88373-3.9378c0.23393-0.36389 0.89673-1.2606 1.9364-1.4945 0.62381-0.14296 1.1177 0.025992 1.6895 0.20794 0.63681 0.20794 1.3646 0.45486 2.3003 0.24692 1.9624-0.45486 3.288-2.7941 3.327-5.8352 0-0.24692-0.16895-0.45486-0.41587-0.50685zm-3.145 5.3284c-0.6498 0.14296-1.1566-0.025992-1.7415-0.22093-0.63681-0.20794-1.3516-0.45486-2.2483-0.24692-0.88373 0.19494-1.5465 0.71478-2.0014 1.2086l-0.051984-0.23393-0.76677-3.379c0.22093-0.3379 0.83175-1.1437 1.8584-1.3386 0.77976-0.14296 1.4426 0.3379 2.2093 0.90972 0.74077 0.54583 1.5985 1.1696 2.6252 1.1307 0.87074-0.038988 1.7675-0.54583 2.4692-1.1177-0.29891 1.5595-1.0657 2.9891-2.3523 3.288z" stroke="#000000" stroke-width=".12996"/></svg>
