<svg viewBox="0 0 14 14" xmlns="http://www.w3.org/2000/svg"><path d="m1.349915 11.579346.7364885.736488c.4055151.396203.8669898.363567 1.2771824-.08857l4.8803846-5.3138623c.2004295.139835.386869.1351788.6152782.0885743l.4987669-.1025642.3309735.3309521-.0233023.2470554c-.032636.2563676.041927.4521409.2796273.6898625l.3915889.3868904c.237701.2423778.554642.2563677.783072.027958l1.552239-1.5521962c.228345-.2284093.214398-.5407153-.0233-.7830931l-.391591-.3915461c-.237701-.237743-.438173-.3216397-.689906-.2843475l-.251647.0279584-.317026-.3169621.139856-.5453715c.065293-.2703363-.004678-.4894331-.298316-.7784369l-1.1512949-1.1466598c-1.692074-1.6827189-3.8595698-1.6314581-5.3418807-.1351788-.2050856.2050856-.2237316.484777-.093209.6898626.107199.1771272.3356083.2843475.6479142.205107.7224987-.1818047 1.4449973-.1258664 2.1535274.3542544l-.2983375.7551346c-.1118765.27967-.1025428.5080578.00933.717821l-5.3278443 4.9036868c-.44748476.414849-.49876685.86699-.088574 1.277183zm3.7383596-8.7166099c1.2725262-.9508865 2.8573584-.797083 4.0040396.3495982l1.2538378 1.2445678c.111898.1118766.12593.2004295.09327.3402858l-.177085.7458009.750436.7504571.456797-.041948c.135179-.01399.177085-.00466.288961.1025428l.293749.2983371-1.309862 1.3144746-.298316-.2983161c-.107199-.1072204-.116554-.1491687-.102521-.2843476l.041906-.4614746-.7457586-.7458009-.7738235.1491687c-.1351788.0279584-.2050856.0279584-.3216184-.0885743l-1.0348046-1.0394608c-.1118765-.1118765-.1258664-.1771272-.0652719-.3262959l.4568185-1.0907215c-.764447-.7318324-1.7759493-1.1373688-2.7501595-.8250629-.041948.01399-.069928.00466-.083897-.01399-.01399-.023302-.01399-.046605.023303-.07924zm-3.1323938 8.3810009c-.2377216-.237721-.1538248-.382234.0046564-.526725l5.2346388-4.8290812.5826423.5872984-4.8430711 5.2159928c-.1444912.158481-.3262745.205086-.5220478.01399z" stroke="#000" stroke-width=".213586"/></svg>