<svg viewBox="0 0 14 14" xmlns="http://www.w3.org/2000/svg"><g fill="#fff" stroke="#000" stroke-linecap="round" stroke-linejoin="round" stroke-width=".5"><path d="m6.4275917 3.4616239a1.0931453 1.0931453 0 0 0 -.4450538 1.4808968 1.0931453 1.0931453 0 0 0 .6173452.5162943 1.0931453 1.0931453 0 0 0 .0904342.7996854 1.0931453 1.0931453 0 0 0 1.4808967.4450533 1.0931453 1.0931453 0 0 0 .4936091-1.3781729l2.4788169-1.3331941a1.0931453 1.0931453 0 0 0 1.418066.350008 1.0931453 1.0931453 0 0 0 .445054-1.4808963 1.0931453 1.0931453 0 0 0 -.61475-.5176902 1.0931453 1.0931453 0 0 0 -.093029-.7982894 1.0931453 1.0931453 0 0 0 -1.480896-.445054 1.0931453 1.0931453 0 0 0 -.489717 1.3760795l-2.4788175 1.3331941a1.0931453 1.0931453 0 0 0 -1.4219588-.3479145z"/><path d="m1.0732422 10.835724a1.0931453 1.0931453 0 0 0 .4332859 1.484384 1.0931453 1.0931453 0 0 0 .7989422.09678 1.0931453 1.0931453 0 0 0 .5113781.621424 1.0931453 1.0931453 0 0 0 1.4843822-.433287 1.0931453 1.0931453 0 0 0 -.3366168-1.424679l1.3528265-2.4681556a1.0931453 1.0931453 0 0 0 1.3799222-.4787788 1.0931453 1.0931453 0 0 0 -.433286-1.4843817 1.0931453 1.0931453 0 0 0 -.797526-.0993628 1.0931453 1.0931453 0 0 0 -.5127945-.6188393 1.0931453 1.0931453 0 0 0 -1.4843815.433285 1.0931453 1.0931453 0 0 0 .3387416 1.4207997l-1.3528263 2.4681585a1.0931453 1.0931453 0 0 0 -1.3820476.482653z"/></g></svg>