<svg id="a" version="1.1" viewBox="0 0 14 14" xmlns="http://www.w3.org/2000/svg"><path id="b" d="m3.7423 4.8799q1.0927 0 1.6168 0.47947 0.52407 0.47947 0.52407 1.5276v4.0699h-0.71362l-0.18956-0.84743h-0.044602q-0.39026 0.49062-0.82513 0.72477-0.43486 0.23416-1.1819 0.23416-0.81398 0-1.3492-0.42371-0.53522-0.43486-0.53522-1.3492 0-0.89203 0.70247-1.3715 0.70247-0.49062 2.1632-0.53522l1.0147-0.033451v-0.35681q0-0.74707-0.32336-1.037-0.32336-0.28991-0.91433-0.28991-0.46832 0-0.89203 0.14495-0.42371 0.1338-0.79168 0.31221l-0.30106-0.73592q0.39026-0.21186 0.92548-0.35681 0.53522-0.15611 1.115-0.15611zm1.1708 3.1556-0.88088 0.033451q-1.115 0.044601-1.5499 0.35681-0.42371 0.31221-0.42371 0.88088 0 0.50177 0.30106 0.73593 0.31221 0.23416 0.79168 0.23416 0.74708 0 1.2488-0.41256 0.51292-0.42371 0.51292-1.2934zm3.8023-5.5529v2.0628q0 0.37911-0.022302 0.71362-0.01115 0.32336-0.033452 0.51292h0.055754q0.25646-0.37911 0.70247-0.63557t1.1485-0.25646q1.115 0 1.7841 0.78053 0.68017 0.76938 0.68017 2.3081 0 1.5388-0.68017 2.3193-0.68017 0.78052-1.7841 0.78052-0.70247 0-1.1485-0.25646-0.44602-0.25646-0.70247-0.61327h-0.078053l-0.20071 0.75822h-0.70247v-8.4743zm1.6837 3.2113q-0.95893 0-1.3269 0.54637-0.35681 0.54637-0.35681 1.6949v0.044601q0 1.1039 0.35681 1.6949 0.36796 0.57982 1.3492 0.57982 0.80283 0 1.1931-0.59097 0.40141-0.59097 0.40141-1.706 0-2.2635-1.6168-2.2635z" stroke-width=".27876" aria-label="ab"/><path id="c" d="m1.6388 11.794 4.8866-7.2352" fill="none" stroke="#000000" stroke-linecap="round" stroke-width=".6"/></svg>
