<svg id="a" version="1.1" viewBox="0 0 14 14" xmlns="http://www.w3.org/2000/svg"><path id="b" d="m6.5156 1.002c-0.097658 0.00721-0.20056 0.034594-0.30469 0.082031-0.84341 0.38437 0.00669 5.3014 0.37952 5.6742 0.23094 0.043121 0.36195 0.13994 0.71484 0.050778 0.17849-0.1445 0.22159 0.090052 0.24939-0.69175 0.028245-0.7942-0.093255-3.3031-0.20703-4.252-0.067535-0.56355-0.40884-0.89451-0.83203-0.86328zm3.5826 6.5511c0.286 0.0523 0.29669 0.080289 0.56384-0.63511 0.3685-0.9869 0.81219-2.6807 0.78516-2.998-0.05721-0.6716-0.84024-0.80101-1.1562-0.19141-0.08246 0.1591-0.32345 1.0335-0.53516 1.9453-0.35241 1.5178-0.33664 1.368-0.22595 1.5628 0.1138 0.13275 0.23596 0.18724 0.56836 0.31641zm-0.57678-3.5785c0.20667-1.4501 0.21851-1.6409 0.11133-1.8633-0.13775-0.28586-0.38612-0.431-0.63477-0.42383-0.19339 0.0055761-0.38809 0.10335-0.53125 0.29883-0.15953 0.21777-0.77151 4.8468-0.5697 4.9105 0.3609 0.11389 0.61577 0.18731 1.0299 0.11321 0.13192-0.26963 0.34475-1.283 0.59452-3.0354zm-4.5259 4.3887c-0.22353 0.30655-0.07333 1.1197 0.49265 0.6875 0.20897-0.1595 0.19751-0.10156 0.24023-0.10156 0.04278-1e-7 0.058999 0.15922 0.037109 0.35352-0.11966 1.0616 0.64258 1.6836 1.7207 1.6836 0.87351 0.0038 1.5148-0.41817 1.5862-1.2786 0.02159-0.2604-3e-3 -0.52521-0.06055-0.63281-0.07287-0.1364-0.0872-0.20729-0.04687-0.21484s0.19078-0.044638 0.33649 0.077962c1.0642 0.4552 0.68392 2.49-0.80324 2.8431-0.88414 0.2625-2.3548 0.21286-3.2522-0.56048-0.65857-0.3585-1.0781-1.0671-1.0781-1.8242-0.03047-0.49937-0.028203-0.99991-0.035156-1.5-0.089581-1.3542-0.35332-1.8063-1.1133-1.9082-0.43704-0.0586-0.53104 0.10794-0.43164 0.77344 0.040041 0.2681 0.097243 1.1081 0.12695 1.8672 0.029714 0.7592 0.10454 1.5716 0.16602 1.8047 0.33499 1.2699 1.4293 2.1602 3.0059 2.4453 0.77783 0.14 1.9108 0.16198 2.5176 0.04687 2.657-0.5037 3.2863-3.2544 1.998-4.541-0.76178-0.59439-1.6164-0.86984-2.5547-0.97852-1.2966-0.1324-2.1264-0.038074-2.852 0.95703zm-0.73001-6.5508c-0.29594-0.012638-0.58324 0.15527-0.68945 0.50977-0.080492 0.2687-0.046725 0.50458 0.26172 1.8301 0.39697 1.7058 0.76448 2.6742 0.96155 2.975 0.30687 0.46827 0.90053 0.025912 0.93656-0.020272 0.098216-0.12589 0.11738-0.3386 0.082973-0.75512-0.054925-0.6726-0.66807-3.5969-0.81116-3.9691-0.14033-0.36495-0.44625-0.55768-0.74219-0.57031zm4.0352 6.9824c0.01243-6.254e-4 0.02276 0.00309 0.03125 0.011719 0.01766 0.0179 0.01431 0.13632-0.0098 0.26172-0.04903 0.255-0.27343 0.31457-0.27343 0.072265 0-0.1295 0.16496-0.34133 0.25195-0.3457z" fill="#000000"/></svg>
