<svg id="a" version="1.1" viewBox="0 0 14 14" xmlns="http://www.w3.org/2000/svg"><path id="b" d="m6.7774 1.2371c-1.2439 1.2439-0.25442 2.4721-1.3638 1.932-1.1656-0.56755-1.2435-0.73861-2.7602-1.7118-0.94922-0.60902-1.4114-0.13621-1.5224 0.0084792-0.3097 0.4036-0.34716 1.0052 0.30207 1.5027 1.0553 0.80869 2.2156 1.5424 3.1314 2.4755 0.015092 1.6063-0.88388 2.5542-2.0412 3.5361-0.75622 0.67392-0.94606 1.5245-0.80059 3.2507 0.091918 1.0905 0.4994 1.4272 1.2037 1.3514 0.93484-0.08107 0.67349-1.0087 0.59343-1.833-0.076728-0.56952 0.059778-1.3789 0.48073-1.8279 0.9088-0.8929 1.8163-0.64554 2.4776 0.26629 0.50503 1.0274 0.9812 2.0471 1.7234 2.9187 0.80746 0.64215 1.1783 0.61955 1.6718 0.08967 0.22993-0.23416 0.19343-0.62358 0.1164-0.96322-0.4978-1.3249-1.3455-0.84135-1.4376-3.3053-0.032817-0.87929 0.094944-2.1645 0.52113-2.703 0.94648-1.196 2.2885-0.00257 3.9818-2.9077 0.47169-1.0791 0.27612-1.4937-0.23909-1.7473-0.21747-0.10706-1.0729 0.10058-1.4489 1.0426-0.52006 0.87814-1.1371 1.4173-1.9454 1.5587-0.24454-0.00725-0.48473-0.11497-0.71676-0.17001 0.16334-0.10219 0.32006-0.2251 0.46522-0.37027 0.83035-0.83038 0.96806-2.0399 0.30727-2.7007-0.40332-0.44463-1.6579-0.73452-2.6999 0.30738zm2.1901 0.288c0.4608 0.79459-0.31155 1.3072-0.79595 1.9135-0.28677 0.10487-0.7246-0.08601-0.95741-0.33797-0.41476-0.44882-0.31201-0.8868 0.20912-1.4508 0.59175-0.51094 1.0101-0.55032 1.5442-0.12469zm-6.843 0.37379 1.5027 1.0782-0.28398 0.43158-1.5147-1.034c-0.28015-0.34796 0.074927-0.5363 0.29601-0.4758zm10.22 0.54209 0.32784 0.16239c-0.16524 0.56707-0.6122 1.0341-1.088 1.6012l-0.2766-0.30479c0.34911-0.42942 0.70941-0.9516 1.0368-1.4588zm-8.2981 0.83995 0.95804 0.73347c-0.072639 0.16398-0.19164 0.36294-0.2466 0.5322l-0.99537-0.83408c-0.26268-0.18949-0.032737-0.5541 0.28393-0.43159zm4.6116 1.3137c-0.01188 0.91926-0.13473 1.6281-0.58774 2.3822-0.4017-0.24628-0.83759-0.46083-1.2887-0.61023l-0.42727 1.2774 0.82085 0.16318-0.19941 0.91056c-0.76489 0.00746-1.4833-0.034441-2.1551-0.40048l0.20543-0.93647 0.81823 0.16226 0.43843-1.3119c-0.35731-0.076009-0.71949-0.10592-1.0789-0.074241 0.045849-0.91724 0.24073-1.6003 0.64906-2.3209 0.59082-0.026515 1.7907 0.027967 2.8051 0.75862zm2.1992-0.42636 0.36679 0.41341c-0.67575 0.36713-1.2848 0.43924-1.9606 0.72309 0.020799-0.18442-0.016999-0.32331-0.010284-0.51703 0.59327-0.043416 1.0923-0.34611 1.6041-0.61947zm-6.7715 4.2547 0.31622 0.4131-1.2781 1.2134-0.53005-0.24201c0.54158-0.48543 1.4814-1.388 1.4919-1.3845zm3.4034 0.72492 0.43616 1.1709-0.501 0.20024-0.55295-1.1685c0.23287-0.062319 0.41499-0.13612 0.61779-0.20264zm-5.0887 1.2287 0.52311 0.15191c-0.15235 0.91597-0.048487 1.6489 0.107 2.345l-0.51615 0.02331c-0.043495-1.5833-0.11396-2.4988-0.11396-2.5202zm5.7881 0.39181 1.1764 1.898-0.43846 0.27186-1.2196-1.9679c0.16051-0.06737 0.32121-0.13468 0.48166-0.20196z" stroke="#ffffff" stroke-linecap="square" stroke-linejoin="bevel" stroke-width=".4"/></svg>
