<svg viewBox="0 0 14 14" xmlns="http://www.w3.org/2000/svg"><path d="m6.7774302 1.2371084c-1.2439021 1.2439021-.2544229 2.4721478-1.3637811 1.931972-1.1655747-.5675493-1.2434572-.7386061-2.7602237-1.7117617-.9492179-.60901711-1.4114204-.1362063-1.5224415.0084792-.30969768.4036037-.34716123 1.0051756.3020743 1.5026939 1.0552936.8086864 2.215572 1.542362 3.1313826 2.4754928.0150921 1.6062713-.8838792 2.5541802-2.0412414 3.5360556-.7562217.6739155-.9460619 1.5245398-.8005899 3.2506758.091918 1.0905.4993995 1.427155 1.203669 1.351423.9348377-.08107.6734922-1.008656.593433-1.832978-.076728-.56952.059778-1.378869.4807265-1.8279077.4209211-.4490926 1.0671172-.8458845 1.8422923-.4077703.1506903.085168.3154156.130364.4151214.2528566.099703.1224925.1656061.2656994.2201279.4211974.5050256 1.027435.9812044 2.047103 1.723414 2.918699.8074592.642153 1.178349.61955 1.6717985.08967.2299329-.234156.1934269-.623581.1163964-.963217-.4977963-1.324902-1.3455255-.841346-1.43755-3.3053192-.032817-.8792942.094944-2.1644664.5211302-2.7030001.9464813-1.1959838 2.2884703-.0025744 3.9817753-2.9076549.471687-1.0790938.276118-1.4936935-.239091-1.7473161-.217472-.1070551-1.072932.1005819-1.448889 1.0425632-.52006.8781371-1.137081 1.4173409-1.945405 1.5587337-.2445381-.0072514-.4847285-.1149738-.7167588-.1700095.1633415-.102192.3200552-.225099.4652228-.370267.830353-.83038.968063-2.0398653.307267-2.70068931-.4033242-.44463122-1.6579019-.73451837-2.6998598.30737861zm2.1900674.2879956c.4147621.448817.2453376.7026148-.2757591 1.2665773-.5211827.5639901-1.062893.757703-1.4776264.3088863-.4147621-.4488168-.3120054-.8868043.2091188-1.4507944.5781814-.4765321.961607-.5025167 1.5442667-.1246692zm-7.0551462.2795074 1.7147994 1.1724698-.2839836.4315824-1.7504133-1.2696682c-.1167008-.2862504.1541063-.4475362.3195975-.334384zm10.3148186.5363654.444509.2623852c-.165243.5670742-.612198 1.0341483-1.087993 1.6012225l-.276604-.3047913c.265782-.5460938.592745-1.0516166.920088-1.5588164zm-8.1814457.9399467.9580439.7334698c-.0726393.1639769-.191638.3629446-.2466007.5321969l-.9953716-.8340847c-.1405499-.2431864.1398529-.5418849.2839284-.431582zm1.9869461.5489649c.020111-.0003588.040048-.0001925.060377 0 .8621151.00774 1.7970063.2120349 2.5643031.7647008-.0118804.9192597-.1347269 1.6280864-.5877422 2.3821815-.4016984-.2462832-.8375889-.4608313-1.2886702-.6102251l-.4272737 1.2774016.8208511.163176-.1994127.9105593c-.7648944.0074611-1.4833319-.0344412-2.1551488-.4004826l.2054336-.9364665.8182271.1622645.4384319-1.311926c-.3573133-.0760088-.7194878-.1059207-1.0788999-.0742412.0458487-.9172434.2407313-1.6002734.6490586-2.3208661.059883-.00193.1199515-.00506.1804099-.00607zm4.8238826.3383387.366787.4134086c-.67575.3671285-1.2848332.439243-1.9605832.7230852.0207991-.1844154-.0169993-.3233052-.0102844-.5170284.5637685-.0319849 1.0836046-.3275642 1.6040536-.6194654zm-6.7715402 4.2547054.3162188.4131016-1.2781089 1.2134049-.5300519-.2420063c.5436038-.4872447.9518371-.8933877 1.491942-1.3845002zm3.4034062.7249188.4361595 1.1708507-.5010006.200242-.5529506-1.1685435c.1678697.0383875.4618611-.1294772.6177917-.2025492zm-5.0886509 1.2287137.5231131.151907c-.1523486.915973-.048487 1.64894.1069981 2.345032l-.5161532.02331c-.0231036-.841025-.0579681-1.680915-.113958-2.520249zm5.7880516.39181 1.1764242 1.898011-.4384595.271859-1.2195936-1.967888.4816289-.20201z" stroke="#fff" stroke-linecap="square" stroke-linejoin="bevel" stroke-width=".4"/></svg>