<svg id="a" version="1.1" viewBox="0 0 14 14" xmlns="http://www.w3.org/2000/svg"><path id="b" d="m12.836 6.9014c0-0.22273-0.18076-0.40349-0.40349-0.40349h-1.8488l-2.492-4.0268c-0.38493-0.64558-0.88365-0.74323-1.1459-0.74323h-8.074e-4c-0.39139 0-0.77067 0.21304-0.96757 0.54148-0.29374 0.49226-0.19206 1.1669-0.070207 1.6995l0.32521 1.714h-3.1061c-0.68351 0-1.2387 0.54471-1.2387 1.2145 0 0.44223 0.24209 0.83038 0.60362 1.0426-0.12347 0.16866-0.20175 0.36718-0.20175 0.58829 0 0.42447 0.19368 0.78358 0.50114 0.99501-0.11136 0.18964-0.16462 0.4051-0.16462 0.62057 0 0.46401 0.26469 0.85701 0.6593 1.0531-0.10733 0.20659-0.13073 0.4164-0.13073 0.55682 0 0.75211 0.46886 1.2008 1.2532 1.2008h4.5393c0.60846 0 1.0281-0.32602 1.3339-0.56489 0.17673-0.13719 0.34378-0.26792 0.45917-0.26792h1.6971c0.22273 0 0.40349-0.18076 0.40349-0.40349s-0.18076-0.40349-0.40349-0.40349h-1.6971c-0.393 0-0.69158 0.23241-0.95547 0.43738-0.25985 0.20417-0.50598 0.39542-0.83765 0.39542h-4.5393c-0.37686 0-0.44626-0.13315-0.44626-0.39381 0-0.1275 0-0.42528 0.82877-0.42528h0.084733c0.22273 0 0.40349-0.18076 0.40349-0.40349s-0.18076-0.40349-0.40349-0.40349h-1.0152c-0.24774 0-0.42689-0.15898-0.42689-0.37767 0-0.36314 0.36233-0.41721 0.57861-0.41721h0.60524c0.22273 0 0.40349-0.18076 0.40349-0.40349s-0.18076-0.40349-0.40349-0.40349h-1.1588c-0.2663 0-0.36153-0.20175-0.36153-0.39058 0-0.13557 0.29536-0.36879 0.56892-0.41398h0.77954c0.22273 0 0.40349-0.18076 0.40349-0.40349s-0.18076-0.40349-0.40349-0.40349h-0.79326c-0.00565 0-0.010491-0.00323-0.016139-0.00323h-0.50921c-0.23806 0-0.43174-0.18318-0.43174-0.40753s0.19368-0.40753 0.43174-0.40753h3.5935c0.12024 0 0.23402-0.053261 0.31069-0.14606 0.076663-0.092803 0.10814-0.21466 0.08554-0.33248l-0.41963-2.2063c-0.050033-0.22031-0.19206-0.8441-0.026631-1.1217 0.04277-0.07102 0.14687-0.14848 0.27437-0.14848 0.15817 0 0.32037 0.1267 0.45675 0.35507l2.6138 4.2237c0.07343 0.11863 0.20336 0.19125 0.34297 0.19125h2.0731c0.22515 0 0.4051-0.18076 0.4051-0.40349z" fill="#000000" stroke-width=".80698"/></svg>
