<svg viewBox="0 0 14 14" xmlns="http://www.w3.org/2000/svg"><path d="m9.0203685 8.9250572.8772123.3588232s-1.1092442 1.6053526-2.2957014 1.6373766c.025738 0 .00629-4.5184349.0021-5.6134938.7895386-.2577526 1.3649012-.976956 1.3649012-1.833176 0-1.0751244-.8971638-1.946067-2.0027543-1.946067-1.1076861 0-2.00485.8709426-2.00485 1.9455296 0 .8420348.5575237 1.5544142 1.3297606 1.8247938l.00527 5.6030164c-1.4315914-.098706-2.2327192-.9572911-2.2327192-.9572911l.9670155-.9354748-3.5068216-1.3108006.5312487 4.1933625.9328957-.902429c.8079149.650426 1.6930259 1.64613 3.8884634 1.64613 2.7581731-.07034 3.4223186-1.199886 4.1294316-1.783684l1.020533.994795.50449-4.2259248zm-3.0878899-5.4830854c0-.5533325.4625254-1.0026936 1.0326224-1.0026936.5700969 0 1.0347179.4493611 1.0347179 1.0026936 0 .5548908-.464621 1.0037682-1.0347179 1.0037682-.570097 0-1.0326224-.4488774-1.0326224-1.0037682z" fill="#010002" stroke-width=".053732"/></svg>