<svg viewBox="0 0 14 14" xmlns="http://www.w3.org/2000/svg"><g stroke-width=".483298" transform="translate(-.059936 -.119872)"><path d="m11.586316 5.6701163c-.249688.000898-.494731.067576-.710448.1933192-.264828-.42004-.726191-.6753395-1.2227447-.6766173-.2496881.000898-.494731.0675764-.7104477.1933193-.3620786-.5697316-1.0694419-.8142028-1.7060416-.5896235v-2.5034834c-.0005076-1.93268333-2.9002955-1.93268333-2.8997879 0l.0599362 5.3346392-1.1376906-.7046448c-.2470655-.1839968-.5473923-.282409-.8554374-.2803128-1.296313-.0031992-1.94498039 1.5664537-1.0245916 2.4793184l3.8663835 3.5280744c.5473815.48993 1.2565751.760181 1.9911878.758778h2.4164893c1.8684267 0 3.3830857-1.514659 3.3830857-3.383085v-2.8997879c0-.8007539-.649139-1.4498933-1.449893-1.4498938z"/><path d="m12.069613 10.019798c0 1.33459-1.0819 2.416489-2.4164897 2.416489h-2.4164893c-.488516.005905-.9625452-.165845-1.3339025-.483298l-3.8422187-3.5280742c-.0892865-.0900194-.1396226-.2115203-.1401565-.3383087-.0000001-.3982595.4546692-.6255941.7732768-.3866384l2.609809 1.7882025v-7.2011396c.0001311-.6442659.966727-.6442659.9665959 0v5.3162775h.966596v-1.4498939c.0004345-.6439619.9670302-.6439619.9665957 0v1.4498939h.9665962v-.9665959c0-.6443978.9665971-.6443978.9665971 0v.9665959h.966595v-.483298c.000888-.6435079.965707-.6435079.966595 0z" fill="#fff"/></g></svg>