<svg viewBox="0 0 14 14" xmlns="http://www.w3.org/2000/svg"><path d="m67.853322 388.17497c.033-10.27799 3.789254-20.22808 11.594246-28.06607 7.827992-7.80499 17.78808-11.56125 28.066072-11.59425 10.27699.044 20.22608 3.78926 28.06607 11.59425 7.80499 7.82799 11.55024 17.78808 11.59424 28.06607-.044 10.26699-3.77825 20.22708-11.59424 28.06607-7.83899 7.80499-17.79908 11.55024-28.06607 11.59424-10.277992-.044-20.22808-3.78925-28.066072-11.59424-7.804992-7.82799-11.561246-17.79908-11.594246-28.06607zm171.115068-145.04801c0-9.41699 7.61456-17.03155 17.03155-17.03155s17.03155 7.61356 17.03155 17.03155c-.001 9.41699-7.61456 17.03155-17.03155 17.03155s-17.03155-7.61456-17.03155-17.03155zm185.98769-225.328163-1.43929-1.439285-166.17722 168.616238-168.856487-168.696199-1.519246 1.519246c-30.01797 30.02797-30.02797 78.716056 0 108.746023l113.223803 113.14385-49.9752 49.89523c-13.64498-5.90599-28.18182-8.89859-42.6988-8.87559-27.401975-.044-55.144281 10.49142-76.04226 31.4244-20.932979 20.89798-31.54836342 48.64028-31.50436346 76.04226-.04399996 27.38997 10.58238446 55.13328 31.50436346 76.04226 20.919979 20.93097 48.651285 31.53836 76.04226 31.50436 27.41197.034 55.14428-10.59339 76.04226-31.50436 20.91097-20.90998 31.4584-48.64129 31.4244-76.04226.023-14.50599-2.9796-29.07582-8.8756-42.69881l49.89524-49.89524 49.89523 49.89524c-5.89599 13.63399-8.97755 28.18082-8.95555 42.69881-.033 27.40097 10.57238 55.14428 31.50436 76.04226 20.89798 20.92097 48.63029 31.53836 76.04226 31.50436 27.40097.034 55.13228-10.57239 76.04226-31.50436 20.93198-20.89798 31.53836-48.65229 31.50436-76.04226.034-27.41298-10.57138-55.14428-31.50436-76.04226-20.89798-20.93198-48.64129-31.53736-76.04226-31.50436-14.51799-.011-29.13278 3.03756-42.77877 8.95555l-50.69923-49.69909 113.94784-113.33999c30.02897-30.028967 30.01797-78.718053 0-108.746023m-60.13015 370.376173c.044-10.27799 3.77725-20.22808 11.59424-28.06607 7.83899-7.81599 17.78808-11.55025 28.06607-11.59425 10.25599.034 20.22808 3.77726 28.06607 11.59425 7.80499 7.83899 11.55025 17.79908 11.59425 28.06607-.045 10.26799-3.77826 20.23908-11.59425 28.06607-7.83799 7.81599-17.79908 11.56024-28.06607 11.59424-10.25599-.034-20.22708-3.77825-28.06607-11.59424-7.80499-7.82799-11.55024-17.82108-11.59424-28.06607z" transform="matrix(0 .02442618 -.02442618 0 13.253116 .746899)"/></svg>