<svg viewBox="0 0 14 14" xmlns="http://www.w3.org/2000/svg"><g stroke="#000" stroke-linecap="round" stroke-linejoin="round" transform="matrix(1.1326816 -.08832544 .08832544 1.1326816 -2.483833 1.310377)"><g stroke-width=".533333" transform="matrix(.92916051 -.05145954 .05145954 .92916051 1.054332 -.282017)"><path d="m13.052226 2.007576-6.0767777 9.030761-4.4009099-1.1047208-.1618981-4.2626662z" fill="#fff"/><path d="m12.500053 2.4031197-5.6949268 4.4354533m-4.1687345-1.0595534 4.1727503 1.0453102.0979442 4.1661122" fill="none"/></g><path d="m6.7692095 8.1985115a2.1141227 2.1141227 0 0 1 -2.1141228 2.1141235 2.1141227 2.1141227 0 0 1 -2.1141227-2.1141235 2.1141227 2.1141227 0 0 1 2.1141227-2.1141227 2.1141227 2.1141227 0 0 1 2.1141228 2.1141227z" fill="#fff" stroke-width=".473822"/></g></svg>