<svg viewBox="0 0 14 14" xmlns="http://www.w3.org/2000/svg"><path d="m6.515625 1.0019531c-.097658.00721-.2005644.034594-.3046875.082031-.8434069.3843654.00669 5.3013865.379519 5.674173.2309447.043121.3619491.1399444.7148437.050778.1784878-.1444963.2215873.0900516.2493873-.6917476.028245-.7941992-.0932554-3.3030541-.2070313-4.2519531-.0675349-.5635495-.4088446-.89450727-.8320312-.8632813zm3.582644 6.5511262c.285995.0523.296692.080289.56384-.6351106.368505-.986899.812187-2.6807471.785157-2.9980468-.057212-.6715994-.84024-.8010057-1.15625-.1914063-.082456.1590999-.3234518 1.0335134-.5351566 1.9453125-.3524077 1.5177985-.3366397 1.3680452-.2259498 1.562845.1138046.1327523.2359567.1872418.5683594.3164062zm-.5767846-3.5784699c.2066718-1.4500986.218506-1.6408815.1113281-1.8632813-.1377516-.2858622-.3861236-.4309973-.6347656-.4238281-.1933883.0055761-.388091.1033533-.53125.2988281-.1595289.21777-.7715078 4.8468168-.5696998 4.9105012.3609033.1138901.6157721.1873053 1.0298716.1132096.1319205-.2696343.3447469-1.2830313.5945157-3.0354295zm-4.5258507 4.3886719c-.2235327.3065536-.0733298 1.1197043.4926475.6874996.2089748-.1594999.1975145-.1015625.2402344-.1015625.04278-.0000001.058999.1592158.037109.3535156-.1196639 1.061599.6425792 1.683594 1.7207031 1.683594.8735082.0038 1.5148176-.41817 1.5861675-1.2785695.02159-.2603997-.00295-.5252126-.060547-.6328125-.072874-.1363998-.0872-.2072937-.046874-.2148433.040325-.00755.1907838-.044638.3364927.077962 1.0642391.4552042.6839164 2.4900179-.803242 2.8431179-.8841351.262499-2.3547506.212858-3.2522308-.56048-.6585713-.3585-1.078125-1.067119-1.078125-1.8242186-.03047-.4993717-.028203-.9999129-.035156-1.5-.08958-1.3541983-.353324-1.8063029-1.1132812-1.9082028-.4370376-.0586-.5310406.1079382-.4316407.7734375.040041.2680998.097243 1.1080883.1269532 1.8671876.029714.7591992.1045356 1.5715877.1660156 1.8046877.3349906 1.269898 1.4292989 2.160213 3.0058593 2.445312.7778323.14 1.9108078.161975 2.5175782.04687 2.6569595-.503702 3.2862545-3.2543615 1.9980465-4.5410104-.761777-.5943936-1.6164481-.8698366-2.5546878-.9785156-1.2966377-.1323999-2.1264115-.0380739-2.8520225.9570313zm-.7300087-6.5507813c-.2959397-.0126375-.5832447.155266-.6894531.5097656-.0804919.2686998-.046725.5045795.2617187 1.8300781.3969676 1.7057983.7644824 2.6741547.9615502 2.9749544.3068651.4682731.9005275.0259115.9365581-.0202722.0982161-.1258922.1173826-.3386037.0829732-.7551185-.0549249-.6725993-.6680687-3.5968953-.8111596-3.9690949-.1403344-.3649496-.4462478-.557675-.7421875-.5703125zm4.0351563 6.9824219c.012428-.0006254.022765.00309.03125.011719.01766.0179.014314.1363189-.00977.2617188-.049028.2549994-.2734332.3145651-.2734332.072265 0-.1294999.1649587-.3413254.2519532-.3457028z" fill="#fff"/></svg>