<svg viewBox="0 0 14 14" xmlns="http://www.w3.org/2000/svg"><path d="m8.3724561.51209662c-.5416191.00983709-1.1278977.25791088-1.5950259.72501178-1.2439021 1.2439021-.2544229 2.4721478-1.3637811 1.931972-1.1655747-.5675493-1.2434572-.7386061-2.7602237-1.7117617-.2782134-.1785014-.536978-.2601757-.7681809-.271058-.3854023-.018063-.5607032.0272883-.7542606.2795372-.30969768.4036037-.34716123 1.0051756.3020743 1.5026939 1.0552936.8086864 2.215572 1.542362 3.1313826 2.4754928.0150921 1.6062713-.8838792 2.5541802-2.0412414 3.5360556-.7562217.6739155-.9460619 1.5245398-.8005899 3.2506758.091918 1.0905.4993995 1.427155 1.203669 1.351423.9348377-.08107.6734922-1.008656.593433-1.832978-.076728-.56952.059778-1.378869.4807265-1.8279077.4209211-.4490926 1.0671172-.8458845 1.8422923-.4077703.1506903.085168.3154156.130364.4151214.2528566.099703.1224925.1656061.2656994.2201279.4211974.5050256 1.027435.9812044 2.047103 1.723414 2.918699.8074592.642153 1.178349.61955 1.6717985.08967.2299329-.234156.1934269-.623581.1163964-.963217-.4977963-1.324902-1.3455255-.841346-1.43755-3.3053192-.032817-.8792942.094944-2.1644664.5211302-2.7030001.9464813-1.1959838 2.2884703-.0025744 3.9817753-2.9076549.471687-1.0790938.276118-1.4936935-.239091-1.7473161-.217472-.1070551-1.072932.1005819-1.448889 1.0425632-.36292.909565-1.08318 1.428121-1.945405 1.5587337-.2445381-.0072514-.4847285-.1149738-.7167588-.1700095.1633415-.102192.3200552-.225099.4652228-.370267.830353-.83038.968063-2.0398653.307267-2.70068931-.2890655-.28912087-.6834178-.42542306-1.10478-.41777252zm-.0646814.52907888c.2644006-.0052456.5116235.0875536.6930562.2839285.4147621.448817.328671 1.2692815-.1924257 1.833244-.5211827.5639901-1.2795597.657703-1.6942931.2088863-.4147621-.4488168-.3286721-1.2701377.1924521-1.8341278.2931256-.3172098.6612114-.4852744 1.0012071-.4919032zm-6.41209.6801026 1.7314661 1.2558031-.2839836.4315824-1.7504133-1.2696682c-.1167008-.2862504.1587926-.5222583.3029308-.4177173zm10.3314853.6196987.444509.2623852-1.00466 1.7012225-.359937-.4047913c.265782-.5460938.592745-1.0516166.920088-1.5588164zm-8.1814457.9399467 1.2247106.8001365c-.0726393.1639769-.2583047.3296112-.3132674.4988635l-1.1953716-.867418c-.1405499-.2431864.1320233-.5308257.2839284-.431582zm1.9869461.5489649c.020111-.0003588.040048-.0001925.060377 0 .8621151.00774 1.7970063.2120349 2.5643031.7647008-.0118804.9192597-.1347269 1.6280864-.5877422 2.3821815-.4016984-.2462832-.8375889-.4608313-1.2886702-.6102251l-.4272737 1.2774016.8208511.163176-.1994127.9105593c-.7648944.0074611-1.4833319-.0344412-2.1551488-.4004826l.2054336-.9364665.8182271.1622645.4384319-1.311926c-.3573133-.0760088-.7194878-.1059207-1.0788999-.0742412.0458487-.9172434.2407313-1.6002734.6490586-2.3208661.059883-.00193.1199515-.00506.1804099-.00607zm4.8238826.3383387.366787.4134086-2.0939165.7897519c.0207991-.1844154.0330007-.3733052.0397156-.5670284l1.6873869-.6361321zm-6.6382069 4.1713721.3495522.3797682-1.4447756 1.3300716-.5300519-.2420063c.5436038-.4872447 1.0851704-.976721 1.6252753-1.4678335zm3.0700729.6249188.6361595 1.354184-.5010006.200242-.6029506-1.3352102.4678193-.2191883zm-4.8886509 1.412047.5231131.151907.1069981 2.345032-.5161532.02331c-.0231036-.841025-.0579681-1.680915-.113958-2.520249zm5.7880516.39181 1.1764242 1.898011-.4384595.271859-1.2195936-1.967888.4816289-.20201z" fill="#fff" stroke="#000" stroke-linecap="square" stroke-linejoin="bevel" stroke-width=".4"/></svg>