<svg xmlns="http://www.w3.org/2000/svg" id="a" version="1.1" viewBox="0 0 14 14"><path id="c" d="m1.1771 4.4079a1.3132 1.3132 0 0 0-0.32881 1.8283 1.3132 1.3132 0 0 0 0.80736 0.53185 1.3132 1.3132 0 0 0 0.21722 0.94209 1.3132 1.3132 0 0 0 1.8283 0.32881 1.3132 1.3132 0 0 0 0.4008-1.7123l2.7763-1.93a1.3132 1.3132 0 0 0 1.7403 0.22395 1.3132 1.3132 0 0 0 0.32881-1.8283 1.3132 1.3132 0 0 0-0.80448-0.53387 1.3132 1.3132 0 0 0-0.22012-0.94005 1.3132 1.3132 0 0 0-1.8283-0.32881 1.3132 1.3132 0 0 0-0.39644 1.7093l-2.7763 1.93a1.3132 1.3132 0 0 0-1.7447-0.22092z" fill="black" stroke="white" stroke-linecap="round" stroke-linejoin="round" stroke-width=".32796" /><g id="d" transform="matrix(.71493 0 0 .71493 3.9455 4.276)" fill="none" stroke="white" stroke-linecap="round" stroke-linejoin="round"><path id="b" d="m6.9817 2.3461-5.1015 2.198 5.1065 2.1808 5.1592-2.1858zm-0.015204 4.3698v5.2688l5.1858-2.3789v-5.021zm-5.1188 2.8898 5.12 2.3789v-5.2688l-5.12-2.1311z" stroke-width=".382" /><path id="e" d="m9.3444 3.4878-4.95 2.2167v5.0167" stroke-width=".5" /><path id="f" d="m4.6308 3.4357 4.95 2.2167v5.0167" stroke-width=".5" /><path id="g" d="m1.9417 6.995 5.0167 2.2333 5.1167-2.1667" stroke-width=".5" /></g></svg>