<svg viewBox="0 0 14 14" xmlns="http://www.w3.org/2000/svg"><path d="m1.3273152 6.8378505a2.0021319 2.0021319 0 0 0 -.50129852 2.7874309 2.0021319 2.0021319 0 0 0 1.23091722.8108496 2.0021319 2.0021319 0 0 0 .3311706 1.436301 2.0021319 2.0021319 0 0 0 2.7874306.501298 2.0021319 2.0021319 0 0 0 .6110541-2.6106268l4.2327988-2.9423942a2.0021319 2.0021319 0 0 0 2.653298.3414394 2.0021319 2.0021319 0 0 0 .501298-2.7874299 2.0021319 2.0021319 0 0 0 -1.226485-.8139306 2.0021319 2.0021319 0 0 0 -.335603-1.4332199 2.0021319 2.0021319 0 0 0 -2.7874296-.5012991 2.0021319 2.0021319 0 0 0 -.6044067 2.6060064l-4.2327984 2.9423942a2.0021319 2.0021319 0 0 0 -2.6599461-.336819z" fill="#3771c8" stroke="#fff" stroke-linecap="round" stroke-linejoin="round" stroke-width=".5"/></svg>