<svg xmlns="http://www.w3.org/2000/svg" id="a" version="1.1" viewBox="0 0 14 14"><g id="b" transform="matrix(.37249 .63035 -.92259 .54519 10.583 -2.4838)" fill="none" stroke="white" stroke-linecap="round"><path id="c" d="m4.7482 7.6725c-0.93363 0-1.5491-0.69835-1.5491-1.632v-3.381c0-0.93363 0.75686-1.6905 1.6905-1.6905h4.15c0.93365 0 1.8084 0.75686 1.8084 1.6905v3.381c0 0.93365-0.66255 1.632-1.5962 1.632" stroke-linejoin="round" stroke-width=".45157" /><path id="d" d="m5.5599 6.0936c-0.47722 0-0.86408-0.39402-0.86408-0.88012v-1.7602c0-0.48607 0.38686-0.88012 0.86408-0.88012h2.8802c0.47723 0 0.86408 0.39404 0.86408 0.88012v1.7602c0 0.48608-0.38685 0.88012-0.86408 0.88012z" stroke-linejoin="round" stroke-width=".45157" /><path id="e" d="m6.3562 9.55h-1.6184v-1.8775h4.5242v1.8775h-1.5m0.46667 0s-0.20597 1.6896-0.41953 2.5269-1.3866 0.8847-1.5709 0c-0.18425-0.8847-0.41381-2.5269-0.41381-2.5269" stroke-linejoin="round" stroke-width=".45157" /><path id="f" d="m11.722 12.742c0.73385 0.09014 1.2644 0.94494 0.92086 1.3421s-1.5657 0.60127-2.1649 0.09627l-2.2102-1.8627z" stroke-linejoin="bevel" stroke-width=".39796" /></g></svg>