<svg xmlns="http://www.w3.org/2000/svg" id="a" version="1.1" viewBox="0 0 14 14"><path id="b" d="m1.3499 11.579 0.73649 0.73649c0.40552 0.3962 0.86699 0.36357 1.2772-0.08857l4.8804-5.3139c0.20043 0.13984 0.38687 0.13518 0.61528 0.088574l0.49877-0.10256 0.33097 0.33095-0.023302 0.24706c-0.032636 0.25637 0.041927 0.45214 0.27963 0.68986l0.39159 0.38689c0.2377 0.24238 0.55464 0.25637 0.78307 0.027958l1.5522-1.5522c0.22834-0.22841 0.2144-0.54072-0.0233-0.78309l-0.39159-0.39155c-0.2377-0.23774-0.43817-0.32164-0.68991-0.28435l-0.25165 0.027958-0.31703-0.31696 0.13986-0.54537c0.065293-0.27034-0.004678-0.48943-0.29832-0.77844l-1.1513-1.1467c-1.6921-1.6827-3.8596-1.6315-5.3419-0.13518-0.20509 0.20509-0.22373 0.48478-0.093209 0.68986 0.1072 0.17713 0.33561 0.28435 0.64791 0.20511 0.7225-0.1818 1.445-0.12587 2.1535 0.35425l-0.29834 0.75513c-0.11188 0.27967-0.10254 0.50806 0.00933 0.71782l-5.3278 4.9037c-0.44748 0.41485-0.49877 0.86699-0.088574 1.2772zm3.7384-8.7166c1.2725-0.95089 2.8574-0.79708 4.004 0.3496l1.2538 1.2446c0.1119 0.11188 0.12593 0.20043 0.09327 0.34029l-0.17708 0.7458 0.75044 0.75046 0.4568-0.041948c0.13518-0.01399 0.17708-0.00466 0.28896 0.10254l0.29375 0.29834-1.3099 1.3145-0.29832-0.29832c-0.1072-0.10722-0.11655-0.14917-0.10252-0.28435l0.041906-0.46147-0.74576-0.7458-0.77382 0.14917c-0.13518 0.027958-0.20509 0.027958-0.32162-0.088574l-1.0348-1.0395c-0.11188-0.11188-0.12587-0.17713-0.065272-0.3263l0.45682-1.0907c-0.76445-0.73183-1.7759-1.1374-2.7502-0.82506-0.041948 0.01399-0.069928 0.00466-0.083897-0.01399-0.01399-0.023302-0.01399-0.046605 0.023303-0.07924zm-3.1324 8.381c-0.23772-0.23772-0.15382-0.38223 0.0046564-0.52672l5.2346-4.8291 0.58264 0.5873-4.8431 5.216c-0.14449 0.15848-0.32627 0.20509-0.52205 0.01399z" fill="white" stroke="white" stroke-width=".21359" /></svg>