<svg xmlns="http://www.w3.org/2000/svg" id="a" version="1.1" viewBox="0 0 14 14"><g id="b" fill="black" stroke="white" stroke-linecap="round" stroke-linejoin="round" stroke-width=".5"><path id="c" d="m6.4276 3.4616a1.0931 1.0931 0 0 0-0.44505 1.4809 1.0931 1.0931 0 0 0 0.61735 0.51629 1.0931 1.0931 0 0 0 0.090434 0.79969 1.0931 1.0931 0 0 0 1.4809 0.44505 1.0931 1.0931 0 0 0 0.49361-1.3782l2.4788-1.3332a1.0931 1.0931 0 0 0 1.4181 0.35001 1.0931 1.0931 0 0 0 0.44505-1.4809 1.0931 1.0931 0 0 0-0.61475-0.51769 1.0931 1.0931 0 0 0-0.093029-0.79829 1.0931 1.0931 0 0 0-1.4809-0.44505 1.0931 1.0931 0 0 0-0.48972 1.3761l-2.4788 1.3332a1.0931 1.0931 0 0 0-1.422-0.34791z" /><path id="d" d="m1.0732 10.836a1.0931 1.0931 0 0 0 0.43329 1.4844 1.0931 1.0931 0 0 0 0.79894 0.09678 1.0931 1.0931 0 0 0 0.51138 0.62142 1.0931 1.0931 0 0 0 1.4844-0.43329 1.0931 1.0931 0 0 0-0.33662-1.4247l1.3528-2.4682a1.0931 1.0931 0 0 0 1.3799-0.47878 1.0931 1.0931 0 0 0-0.43329-1.4844 1.0931 1.0931 0 0 0-0.79753-0.099363 1.0931 1.0931 0 0 0-0.51279-0.61884 1.0931 1.0931 0 0 0-1.4844 0.43328 1.0931 1.0931 0 0 0 0.33874 1.4208l-1.3528 2.4682a1.0931 1.0931 0 0 0-1.382 0.48265z" /></g></svg>