<svg xmlns="http://www.w3.org/2000/svg" id="a" version="1.1" viewBox="0 0 14 14"><path id="b" d="m7 1.3595c-0.773 0-1.4101 0.63713-1.4101 1.4101 0 0.5288 0.29745 0.99333 0.73444 1.2339l-1.3807 2.7615-2.1593-1.5423c0.28276-0.25889 0.45535-0.63345 0.45535-1.0429 0-0.773-0.63713-1.4101-1.4101-1.4101s-1.4101 0.63713-1.4101 1.4101c0 0.63345 0.43516 1.1604 1.0135 1.3367l0.86664 4.7739v2.3502h9.4008v-2.3502l0.86664-4.7739c0.57837-0.17627 1.0135-0.70323 1.0135-1.3367 0-0.773-0.63713-1.4101-1.4101-1.4101-0.773 0-1.4101 0.63713-1.4101 1.4101 0 0.40945 0.17259 0.78401 0.45535 1.0429l-2.1593 1.5423-1.3807-2.7615c0.43699-0.24053 0.73444-0.70506 0.73444-1.2339 0-0.773-0.63713-1.4101-1.4101-1.4101zm0 0.94008c0.2644 0 0.47004 0.20564 0.47004 0.47004s-0.20564 0.47004-0.47004 0.47004-0.47004-0.20564-0.47004-0.47004 0.20564-0.47004 0.47004-0.47004zm-5.1705 1.4101c0.2644 0 0.47004 0.20564 0.47004 0.47004s-0.20564 0.47004-0.47004 0.47004-0.47004-0.20564-0.47004-0.47004 0.20564-0.47004 0.47004-0.47004zm10.341 0c0.2644 0 0.47004 0.20564 0.47004 0.47004s-0.20564 0.47004-0.47004 0.47004-0.47004-0.20564-0.47004-0.47004 0.20564-0.47004 0.47004-0.47004zm-5.1705 1.0576 1.4542 2.9084c0.1632 0.2383 0.41522 0.25457 0.70506 0.17627l2.3502-1.6745-0.661 3.6428h-7.6969l-0.661-3.6428 2.3502 1.6745c0.26757 0.14634 0.57985 0.073256 0.70506-0.17627zm-3.7603 5.993h7.5207v0.94008h-7.5207z" stroke-width=".3" /></svg>