<svg viewBox="0 0 14 14" xmlns="http://www.w3.org/2000/svg"><g stroke="#fff" stroke-linecap="round" stroke-linejoin="round" stroke-width=".586792" transform="matrix(1.25036926 -.09750261 .09750261 1.25036926 -2.956528 1.265166)"><g stroke-width=".630563" transform="matrix(.92916051 -.05145954 .05145954 .92916051 1.054332 -.282017)"><path d="m12.930786 1.515851-6.1025644 9.54599-5.3146025-.737234.5983836-5.3134623z"/><path d="m12.705798 1.7289938-5.488551 3.9689267m-5.1195588-.6970399 5.1113165.666747-.5708433 5.2867944" fill="none"/></g><path d="m6.932277 7.7540681a2.3358387 2.3358387 0 0 1 -2.3358388 2.3358399 2.3358387 2.3358387 0 0 1 -2.3358387-2.3358399 2.3358387 2.3358387 0 0 1 2.3358387-2.3358387 2.3358387 2.3358387 0 0 1 2.3358388 2.3358387z" stroke-width=".648331"/></g></svg>