<svg xmlns="http://www.w3.org/2000/svg" id="a" version="1.1" viewBox="0 0 14 14"><g id="b" transform="matrix(1.2504 -.097503 .097503 1.2504 -2.9565 1.2652)" stroke="white" stroke-linecap="round" stroke-linejoin="round"><g id="c" transform="matrix(.92916 -.05146 .05146 .92916 1.0543 -.28202)" stroke-width=".63056"><path id="d" d="m12.931 1.5159-6.1026 9.546-5.3146-0.73723 0.59838-5.3135z" fill="black" /><path id="e" d="m12.706 1.729-5.4886 3.9689m-5.1196-0.69704 5.1113 0.66675-0.57084 5.2868" fill="none" /></g><path id="f" d="m6.9323 7.7541a2.3358 2.3358 0 0 1-2.3358 2.3358 2.3358 2.3358 0 0 1-2.3358-2.3358 2.3358 2.3358 0 0 1 2.3358-2.3358 2.3358 2.3358 0 0 1 2.3358 2.3358z" fill="black" stroke-width=".64833" /></g></svg>